<svg class="iconAbove" viewBox="0 75 300 150" xmlns="http://www.w3.org/2000/svg" data-v-fde0c5aa="">
  <defs data-v-fde0c5aa=""></defs>
  <rect class="logo-background-square" height="300px" width="300px" y="0" x="0" fill="transparent" data-v-fde0c5aa=""></rect>
  <defs data-v-fde0c5aa=""></defs>
  <g transform="matrix(3.567997694015503,0,0,3.567997694015503,19.60752025844586,170.72087222628278)" fill="#000000" id="c66171c8-50a9-467e-a71c-b8e2743d9df8" data-v-fde0c5aa="">
    <path d="M0.11 1.36L7.17 1.36L7.17 2.88L4.62 2.88L4.62 10.50L2.67 10.50L2.67 2.88L0.11 2.88L0.11 1.36ZM10.61 10.65L10.61 10.65L10.61 10.65Q9.45 10.65 8.69 10.35L8.69 10.35L8.69 10.35Q7.94 10.04 7.48 9.52L7.48 9.52L7.48 9.52Q7.03 9.00 6.85 8.32L6.85 8.32L6.85 8.32Q6.66 7.64 6.66 6.89L6.66 6.89L6.66 6.89Q6.66 6.22 6.85 5.54L6.85 5.54L6.85 5.54Q7.03 4.87 7.43 4.33L7.43 4.33L7.43 4.33Q7.83 3.79 8.47 3.46L8.47 3.46L8.47 3.46Q9.11 3.12 10.04 3.12L10.04 3.12L10.04 3.12Q11.02 3.12 11.67 3.46L11.67 3.46L11.67 3.46Q12.32 3.79 12.71 4.33L12.71 4.33L12.71 4.33Q13.10 4.87 13.27 5.54L13.27 5.54L13.27 5.54Q13.43 6.22 13.43 6.89L13.43 6.89L13.43 7.52L8.47 7.52L8.47 7.52Q8.47 8.27 9.01 8.76L9.01 8.76L9.01 8.76Q9.55 9.25 10.49 9.25L10.49 9.25L10.49 9.25Q11.02 9.25 11.47 9.14L11.47 9.14L11.47 9.14Q11.91 9.03 12.24 8.89L12.24 8.89L12.24 8.89Q12.60 8.74 12.91 8.53L12.91 8.53L12.91 10.09L12.91 10.09Q12.91 10.11 12.73 10.19L12.73 10.19L12.73 10.19Q12.54 10.28 12.24 10.38L12.24 10.38L12.24 10.38Q11.93 10.49 11.51 10.57L11.51 10.57L11.51 10.57Q11.09 10.65 10.61 10.65ZM8.47 6.19L11.65 6.19L11.65 6.19Q11.65 5.95 11.59 5.66L11.59 5.66L11.59 5.66Q11.52 5.38 11.35 5.12L11.35 5.12L11.35 5.12Q11.17 4.87 10.86 4.70L10.86 4.70L10.86 4.70Q10.54 4.54 10.04 4.54L10.04 4.54L10.04 4.54Q9.60 4.54 9.30 4.70L9.30 4.70L9.30 4.70Q9.00 4.87 8.82 5.12L8.82 5.12L8.82 5.12Q8.64 5.38 8.55 5.66L8.55 5.66L8.55 5.66Q8.47 5.95 8.47 6.19L8.47 6.19ZM17.65 3.12L17.65 3.12L17.65 3.12Q18.12 3.12 18.65 3.27L18.65 3.27L18.65 3.27Q19.18 3.42 19.64 3.75L19.64 3.75L19.64 3.75Q20.10 4.07 20.40 4.59L20.40 4.59L20.40 4.59Q20.69 5.11 20.68 5.85L20.68 5.85L20.68 10.50L19.31 10.50L19.31 10.50Q19.31 10.50 19.26 10.33L19.26 10.33L19.26 10.33Q19.22 10.16 19.17 9.95L19.17 9.95L19.17 9.95Q19.12 9.74 19.08 9.58L19.08 9.58L19.08 9.58Q19.04 9.42 19.04 9.44L19.04 9.44L19.04 9.44Q18.84 9.79 18.52 10.05L18.52 10.05L18.52 10.05Q18.24 10.29 17.80 10.47L17.80 10.47L17.80 10.47Q17.36 10.65 16.72 10.65L16.72 10.65L16.72 10.65Q16.27 10.65 15.83 10.52L15.83 10.52L15.83 10.52Q15.40 10.39 15.06 10.13L15.06 10.13L15.06 10.13Q14.71 9.87 14.50 9.48L14.50 9.48L14.50 9.48Q14.28 9.09 14.27 8.57L14.27 8.57L14.27 8.57Q14.24 8.02 14.41 7.59L14.41 7.59L14.41 7.59Q14.59 7.17 14.92 6.86L14.92 6.86L14.92 6.86Q15.25 6.55 15.71 6.36L15.71 6.36L15.71 6.36Q16.17 6.17 16.72 6.10L16.72 6.10L16.72 6.10Q17.23 6.03 17.85 6.03L17.85 6.03L17.85 6.03Q18.47 6.03 18.96 6.06L18.96 6.06L18.96 5.84L18.96 5.84Q18.96 5.24 18.69 4.93L18.69 4.93L18.69 4.93Q18.42 4.63 18.02 4.54L18.02 4.54L18.02 4.54Q17.63 4.45 17.15 4.52L17.15 4.52L17.15 4.52Q16.67 4.59 16.24 4.72L16.24 4.72L16.24 4.72Q15.81 4.86 15.48 5.00L15.48 5.00L15.48 5.00Q15.15 5.15 15.06 5.22L15.06 5.22L15.06 3.81L15.06 3.81Q15.08 3.79 15.32 3.69L15.32 3.69L15.32 3.69Q15.55 3.58 15.92 3.46L15.92 3.46L15.92 3.46Q16.28 3.33 16.74 3.23L16.74 3.23L16.74 3.23Q17.19 3.12 17.65 3.12ZM18.55 8.68L18.55 8.68L18.55 8.68Q18.79 8.37 18.87 7.99L18.87 7.99L18.87 7.99Q18.94 7.62 18.94 7.20L18.94 7.20L18.13 7.20L18.13 7.20Q17.81 7.20 17.44 7.24L17.44 7.24L17.44 7.24Q17.08 7.28 16.77 7.41L16.77 7.41L16.77 7.41Q16.46 7.53 16.25 7.78L16.25 7.78L16.25 7.78Q16.04 8.02 16.04 8.44L16.04 8.44L16.04 8.44Q16.04 8.90 16.39 9.11L16.39 9.11L16.39 9.11Q16.73 9.32 17.23 9.32L17.23 9.32L17.23 9.32Q17.67 9.32 18.00 9.15L18.00 9.15L18.00 9.15Q18.33 8.97 18.55 8.68ZM30.69 3.12L30.69 3.12L30.69 3.12Q31.44 3.12 31.90 3.39L31.90 3.39L31.90 3.39Q32.35 3.65 32.59 4.09L32.59 4.09L32.59 4.09Q32.83 4.52 32.91 5.08L32.91 5.08L32.91 5.08Q32.98 5.64 32.98 6.24L32.98 6.24L32.98 10.50L31.11 10.50L31.11 10.49L31.09 6.19L31.09 6.19Q31.09 5.84 31.05 5.54L31.05 5.54L31.05 5.54Q31.01 5.25 30.89 5.04L30.89 5.04L30.89 5.04Q30.77 4.83 30.56 4.71L30.56 4.71L30.56 4.71Q30.35 4.59 30.03 4.59L30.03 4.59L30.03 4.59Q29.61 4.59 29.33 4.79L29.33 4.79L29.33 4.79Q29.05 4.98 28.90 5.29L28.90 5.29L28.90 5.29Q28.74 5.59 28.68 5.94L28.68 5.94L28.68 5.94Q28.62 6.29 28.62 6.59L28.62 6.59L28.62 10.50L26.77 10.50L26.77 10.49L26.75 10.49L26.75 6.19L26.75 6.19Q26.75 5.84 26.70 5.54L26.70 5.54L26.70 5.54Q26.66 5.25 26.53 5.03L26.53 5.03L26.53 5.03Q26.40 4.82 26.18 4.70L26.18 4.70L26.18 4.70Q25.96 4.58 25.61 4.58L25.61 4.58L25.61 4.58Q25.21 4.58 24.96 4.77L24.96 4.77L24.96 4.77Q24.71 4.97 24.56 5.27L24.56 5.27L24.56 5.27Q24.40 5.57 24.34 5.93L24.34 5.93L24.34 5.93Q24.28 6.29 24.28 6.59L24.28 6.59L24.28 10.50L22.40 10.50L22.40 3.29L23.81 3.29L24.12 4.40L24.12 4.40Q24.12 4.40 24.25 4.20L24.25 4.20L24.25 4.20Q24.37 4.00 24.63 3.77L24.63 3.77L24.63 3.77Q24.88 3.53 25.26 3.33L25.26 3.33L25.26 3.33Q25.65 3.12 26.18 3.12L26.18 3.12L26.18 3.12Q26.88 3.12 27.31 3.32L27.31 3.32L27.31 3.32Q27.75 3.51 28 3.75L28 3.75L28 3.75Q28.29 4.03 28.43 4.38L28.43 4.38L28.43 4.38Q28.46 4.34 28.59 4.14L28.59 4.14L28.59 4.14Q28.71 3.95 28.98 3.72L28.98 3.72L28.98 3.72Q29.25 3.49 29.67 3.30L29.67 3.30L29.67 3.30Q30.09 3.12 30.69 3.12ZM47.04 3.12L47.04 3.12L47.04 3.12Q47.80 3.12 48.25 3.39L48.25 3.39L48.25 3.39Q48.71 3.65 48.94 4.09L48.94 4.09L48.94 4.09Q49.18 4.52 49.26 5.08L49.26 5.08L49.26 5.08Q49.34 5.64 49.34 6.24L49.34 6.24L49.34 10.50L47.46 10.50L47.46 10.49L47.45 6.19L47.45 6.19Q47.45 5.84 47.40 5.54L47.40 5.54L47.40 5.54Q47.36 5.25 47.24 5.04L47.24 5.04L47.24 5.04Q47.12 4.83 46.91 4.71L46.91 4.71L46.91 4.71Q46.70 4.59 46.38 4.59L46.38 4.59L46.38 4.59Q45.96 4.59 45.68 4.79L45.68 4.79L45.68 4.79Q45.40 4.98 45.25 5.29L45.25 5.29L45.25 5.29Q45.09 5.59 45.03 5.94L45.03 5.94L45.03 5.94Q44.97 6.29 44.97 6.59L44.97 6.59L44.97 10.50L43.12 10.50L43.12 10.49L43.11 10.49L43.11 6.19L43.11 6.19Q43.11 5.84 43.06 5.54L43.06 5.54L43.06 5.54Q43.01 5.25 42.88 5.03L42.88 5.03L42.88 5.03Q42.76 4.82 42.53 4.70L42.53 4.70L42.53 4.70Q42.31 4.58 41.96 4.58L41.96 4.58L41.96 4.58Q41.57 4.58 41.31 4.77L41.31 4.77L41.31 4.77Q41.06 4.97 40.91 5.27L40.91 5.27L40.91 5.27Q40.75 5.57 40.69 5.93L40.69 5.93L40.69 5.93Q40.63 6.29 40.63 6.59L40.63 6.59L40.63 10.50L38.75 10.50L38.75 3.29L40.17 3.29L40.47 4.40L40.47 4.40Q40.47 4.40 40.60 4.20L40.60 4.20L40.60 4.20Q40.73 4.00 40.98 3.77L40.98 3.77L40.98 3.77Q41.23 3.53 41.62 3.33L41.62 3.33L41.62 3.33Q42 3.12 42.53 3.12L42.53 3.12L42.53 3.12Q43.23 3.12 43.67 3.32L43.67 3.32L43.67 3.32Q44.10 3.51 44.35 3.75L44.35 3.75L44.35 3.75Q44.65 4.03 44.79 4.38L44.79 4.38L44.79 4.38Q44.81 4.34 44.94 4.14L44.94 4.14L44.94 4.14Q45.07 3.95 45.33 3.72L45.33 3.72L45.33 3.72Q45.60 3.49 46.02 3.30L46.02 3.30L46.02 3.30Q46.44 3.12 47.04 3.12ZM54.73 10.65L54.73 10.65L54.73 10.65Q53.56 10.65 52.81 10.35L52.81 10.35L52.81 10.35Q52.05 10.04 51.60 9.52L51.60 9.52L51.60 9.52Q51.14 9.00 50.96 8.32L50.96 8.32L50.96 8.32Q50.78 7.64 50.78 6.89L50.78 6.89L50.78 6.89Q50.78 6.22 50.96 5.54L50.96 5.54L50.96 5.54Q51.14 4.87 51.54 4.33L51.54 4.33L51.54 4.33Q51.94 3.79 52.58 3.46L52.58 3.46L52.58 3.46Q53.23 3.12 54.15 3.12L54.15 3.12L54.15 3.12Q55.13 3.12 55.78 3.46L55.78 3.46L55.78 3.46Q56.43 3.79 56.83 4.33L56.83 4.33L56.83 4.33Q57.22 4.87 57.38 5.54L57.38 5.54L57.38 5.54Q57.54 6.22 57.54 6.89L57.54 6.89L57.54 7.52L52.58 7.52L52.58 7.52Q52.58 8.27 53.12 8.76L53.12 8.76L53.12 8.76Q53.66 9.25 54.60 9.25L54.60 9.25L54.60 9.25Q55.13 9.25 55.58 9.14L55.58 9.14L55.58 9.14Q56.03 9.03 56.35 8.89L56.35 8.89L56.35 8.89Q56.71 8.74 57.02 8.53L57.02 8.53L57.02 10.09L57.02 10.09Q57.02 10.11 56.84 10.19L56.84 10.19L56.84 10.19Q56.66 10.28 56.35 10.38L56.35 10.38L56.35 10.38Q56.04 10.49 55.62 10.57L55.62 10.57L55.62 10.57Q55.20 10.65 54.73 10.65ZM52.58 6.19L55.76 6.19L55.76 6.19Q55.76 5.95 55.70 5.66L55.70 5.66L55.70 5.66Q55.64 5.38 55.46 5.12L55.46 5.12L55.46 5.12Q55.29 4.87 54.97 4.70L54.97 4.70L54.97 4.70Q54.66 4.54 54.15 4.54L54.15 4.54L54.15 4.54Q53.72 4.54 53.42 4.70L53.42 4.70L53.42 4.70Q53.12 4.87 52.93 5.12L52.93 5.12L52.93 5.12Q52.75 5.38 52.67 5.66L52.67 5.66L52.67 5.66Q52.58 5.95 52.58 6.19L52.58 6.19ZM62.50 10.65L62.50 10.65L62.50 10.65Q61.33 10.65 60.58 10.35L60.58 10.35L60.58 10.35Q59.82 10.04 59.37 9.52L59.37 9.52L59.37 9.52Q58.91 9.00 58.73 8.32L58.73 8.32L58.73 8.32Q58.55 7.64 58.55 6.89L58.55 6.89L58.55 6.89Q58.55 6.22 58.73 5.54L58.73 5.54L58.73 5.54Q58.91 4.87 59.31 4.33L59.31 4.33L59.31 4.33Q59.71 3.79 60.35 3.46L60.35 3.46L60.35 3.46Q61.00 3.12 61.92 3.12L61.92 3.12L61.92 3.12Q62.90 3.12 63.55 3.46L63.55 3.46L63.55 3.46Q64.20 3.79 64.60 4.33L64.60 4.33L64.60 4.33Q64.99 4.87 65.15 5.54L65.15 5.54L65.15 5.54Q65.31 6.22 65.31 6.89L65.31 6.89L65.31 7.52L60.35 7.52L60.35 7.52Q60.35 8.27 60.89 8.76L60.89 8.76L60.89 8.76Q61.43 9.25 62.37 9.25L62.37 9.25L62.37 9.25Q62.90 9.25 63.35 9.14L63.35 9.14L63.35 9.14Q63.80 9.03 64.12 8.89L64.12 8.89L64.12 8.89Q64.48 8.74 64.79 8.53L64.79 8.53L64.79 10.09L64.79 10.09Q64.79 10.11 64.61 10.19L64.61 10.19L64.61 10.19Q64.43 10.28 64.12 10.38L64.12 10.38L64.12 10.38Q63.81 10.49 63.39 10.57L63.39 10.57L63.39 10.57Q62.97 10.65 62.50 10.65ZM60.35 6.19L63.53 6.19L63.53 6.19Q63.53 5.95 63.47 5.66L63.47 5.66L63.47 5.66Q63.41 5.38 63.23 5.12L63.23 5.12L63.23 5.12Q63.06 4.87 62.74 4.70L62.74 4.70L62.74 4.70Q62.43 4.54 61.92 4.54L61.92 4.54L61.92 4.54Q61.49 4.54 61.19 4.70L61.19 4.70L61.19 4.70Q60.89 4.87 60.70 5.12L60.70 5.12L60.70 5.12Q60.52 5.38 60.44 5.66L60.44 5.66L60.44 5.66Q60.35 5.95 60.35 6.19L60.35 6.19ZM65.93 1.36L72.98 1.36L72.98 2.88L70.43 2.88L70.43 10.50L68.49 10.50L68.49 2.88L65.93 2.88L65.93 1.36Z"></path>
  </g>
  <defs data-v-fde0c5aa=""></defs>
  <g transform="matrix(0.672026515007019,0,0,0.672026515007019,116.39867435025678,91.27995267514076)" fill="#464EB8" stroke="none" id="7446f96b-582d-4b40-873b-50c3483d7d0b" data-v-fde0c5aa="">
    <path d="M69.505 11.178v22.318c0 6.152-5.025 11.178-11.172 11.178H32.826L18.438 59.062V44.674h-7.266C5.026 44.674 0 39.648 0 33.496V11.178C0 5.026 5.026 0 11.172 0h47.161c6.146 0 11.172 5.026 11.172 11.178zM88.815 52.578h-31.85c-6.146 0-11.171 5.033-11.171 11.179v12.48c0 6.152 5.026 11.185 11.171 11.185h17.318l11.224 11.225V87.421h3.308c6.146 0 11.185-5.032 11.185-11.185v-12.48c0-6.145-5.039-11.178-11.185-11.178z"></path>
  </g>
</svg>
